<?xml version="1.0" encoding="UTF-8"?>
<svg id="Layer_1" data-name="Layer 1" xmlns="http://www.w3.org/2000/svg" viewBox="0 0 1366 768">
  <defs>
    <style>
      .cls-1 {
        fill: none;
        stroke: #9cd919;
        stroke-miterlimit: 10;
        stroke-width: 5px;
      }

      .cls-2 {
        fill: #f2e52a;
      }

      .cls-2, .cls-3, .cls-4 {
        stroke-width: 0px;
      }

      .cls-3 {
        fill: #9cd919;
      }

      .cls-4 {
        fill: #fff;
      }
    </style>
  </defs>
  <path class="cls-3" d="M538.98,367.42v3.3c0,1.38-1.12,2.49-2.49,2.49h-12.28c-1.38,0-2.49,1.12-2.49,2.49h0c0,1.38,1.12,2.49,2.49,2.49h9.97c1.38,0,2.49,1.12,2.49,2.49v2.88c0,1.38-1.12,2.49-2.49,2.49h-9.97c-1.38,0-2.49,1.12-2.49,2.49v.73c0,1.38,1.12,2.49,2.49,2.49h12.54c1.38,0,2.49,1.12,2.49,2.49v3.3c0,1.38-1.12,2.49-2.49,2.49h-22.61c-1.38,0-2.49-1.12-2.49-2.49v-30.16c0-1.38,1.12-2.49,2.49-2.49h22.35c1.38,0,2.49,1.12,2.49,2.49Z"/>
  <path class="cls-3" d="M558.12,372.27c8.08,0,13.59,3.62,13.59,10.91v.94h-9.44v-.94c0-1.94-1.52-3.15-4.14-3.15h-.84c-2.89,0-4.3,1.47-4.3,3.83v5.3c0,2.2,1.42,3.67,4.3,3.67h.84c2.62,0,4.2-1.21,4.2-3.2v-.79h9.5v.79c0,7.08-5.51,10.96-13.69,10.96h-.84c-8.29,0-14.11-4.09-14.11-11.8v-4.56c0-7.87,5.82-11.96,14.11-11.96h.84Z"/>
  <path class="cls-3" d="M591.22,372.27c8.34,0,14.37,4.04,14.37,11.86v4.62c0,7.87-6.03,11.86-14.37,11.86h-.84c-8.34,0-14.37-3.99-14.37-11.86v-4.62c0-7.82,5.98-11.86,14.37-11.86h.84ZM585.82,383.91v4.98c0,2.47,1.31,3.93,4.56,3.93h.84c3.2,0,4.51-1.47,4.51-3.93v-4.98c0-2.41-1.31-3.88-4.51-3.88h-.84c-3.25,0-4.56,1.47-4.56,3.88Z"/>
  <path class="cls-3" d="M638.59,386.41h0c0,2.25-1.82,4.07-4.07,4.07h-9.76c-2.25,0-4.07-1.82-4.07-4.07h0c0-2.25,1.82-4.07,4.07-4.07h9.76c2.25,0,4.07,1.82,4.07,4.07Z"/>
  <path class="cls-3" d="M670.76,365.57l4.86,14.29c.13.39.5.65.9.65h0c.41,0,.77-.26.9-.64l4.96-14.3c.13-.38.5-.64.9-.64h13.53c.53,0,.95.43.95.95v33.24c0,.53-.43.95-.95.95h-8.01c-.53,0-.95-.43-.95-.95v-22.97h-.63c-.41,0-.77.26-.9.64l-5.01,14.56c-.13.39-.5.64-.9.64h-9.29c-.41,0-.77-.26-.9-.65l-4.96-14.55c-.13-.39-.5-.65-.9-.65h-.58v22.97c0,.53-.43.95-.95.95h-7.48c-.53,0-.95-.43-.95-.95v-33.24c0-.53.43-.95.95-.95h14.52c.41,0,.77.26.9.65Z"/>
  <path class="cls-3" d="M718.38,372.27c8.34,0,14.37,4.04,14.37,11.86v4.62c0,7.87-6.03,11.86-14.37,11.86h-.84c-8.34,0-14.37-3.99-14.37-11.86v-4.62c0-7.82,5.98-11.86,14.37-11.86h.84ZM712.98,383.91v4.98c0,2.47,1.31,3.93,4.56,3.93h.84c3.2,0,4.51-1.47,4.51-3.93v-4.98c0-2.41-1.31-3.88-4.51-3.88h-.84c-3.25,0-4.56,1.47-4.56,3.88Z"/>
  <path class="cls-3" d="M748.96,367.76v3.25c0,.99.8,1.78,1.78,1.78h9.5c.99,0,1.78.8,1.78,1.78v3.41c0,.99-.8,1.78-1.78,1.78h-9.5c-.99,0-1.78.8-1.78,1.78v9.08c0,1.57.68,2.57,2.15,2.57h.84c1.42,0,1.99-1,1.99-2.57h0c0-.99.8-1.78,1.78-1.78h4.98c.99,0,1.78.8,1.78,1.78h0c0,7.34-4.56,9.97-10.65,9.97h-.84c-6.56,0-11.91-2.62-11.91-9.97v-9.08c0-.99-.8-1.78-1.78-1.78h-.21c-.99,0-1.78-.8-1.78-1.78v-3.41c0-.99.8-1.78,1.78-1.78h.21c.99,0,1.78-.8,1.78-1.78v-3.25c0-.99.8-1.78,1.78-1.78h6.29c.99,0,1.78.8,1.78,1.78Z"/>
  <path class="cls-3" d="M772.25,360.99c2.89,0,4.88,1.78,4.88,3.99v.37c0,2.31-1.99,4.04-4.88,4.04h-.84c-2.83,0-4.83-1.73-4.83-4.04v-.37c0-2.2,1.99-3.99,4.83-3.99h.84ZM776.76,377.7v17.47c0,2.71-2.2,4.9-4.9,4.9h0c-2.71,0-4.9-2.2-4.9-4.9v-17.47c0-2.71,2.2-4.9,4.9-4.9h0c2.71,0,4.9,2.2,4.9,4.9Z"/>
  <path class="cls-3" d="M797.27,372.27c8.34,0,14.37,4.04,14.37,11.86v4.62c0,7.87-6.03,11.86-14.37,11.86h-.84c-8.34,0-14.37-3.99-14.37-11.86v-4.62c0-7.82,5.98-11.86,14.37-11.86h.84ZM791.87,383.91v4.98c0,2.47,1.31,3.93,4.56,3.93h.84c3.2,0,4.51-1.47,4.51-3.93v-4.98c0-2.41-1.31-3.88-4.51-3.88h-.84c-3.25,0-4.56,1.47-4.56,3.88Z"/>
  <path class="cls-3" d="M823.4,372.79c1.83,0,3.31,1.48,3.31,3.31h0s1.1,0,1.1,0c1.36-2.26,4.09-3.83,7.92-3.83h.84c5.72,0,8.81,3.04,8.81,10.44v14.06c0,1.83-1.48,3.31-3.31,3.31h-3.2c-1.83,0-3.31-1.48-3.31-3.31v-12.12c0-2.62-1.31-4.09-3.99-4.09h-.84c-2.67,0-4.04,1.47-4.04,4.09v12.12c0,1.83-1.48,3.31-3.31,3.31h-3.2c-1.83,0-3.31-1.48-3.31-3.31v-20.67c0-1.83,1.48-3.31,3.31-3.31h3.2Z"/>
  <path class="cls-1" d="M507.5,380.5c-58,12-97-1-95-20,3.15-29.92,93-29,242-30"/>
  <rect class="cls-4" x="513" y="367" width="8.57" height="6" rx="1.43" ry="1.43"/>
  <polygon class="cls-2" points="520.5 378 514.12 382.5 517.12 382.5 513 387 520.12 381.38 517.12 381.38 520.5 378"/>
  <path class="cls-3" d="M673.5,330.5v19.5c-10.7,0-19.5-8.8-19.5-19.5s8.8-19.5,19.5-19.5c.03,0,.06,0,.09,0l-.09,19.5Z"/>
  <rect class="cls-3" x="669" y="322" width="19" height="3" rx="1" ry="1"/>
  <rect class="cls-3" x="669" y="335" width="19" height="3" rx="1" ry="1"/>
</svg>